<svg width="302" height="110" viewBox="0 0 302 110" fill="none" xmlns="http://www.w3.org/2000/svg">
<path d="M196.474 72.3506V62.1688H197.647V65.9273H197.747C197.833 65.7947 197.952 65.6257 198.104 65.4202C198.26 65.2114 198.482 65.0258 198.771 64.8634C199.062 64.6977 199.457 64.6148 199.954 64.6148C200.597 64.6148 201.164 64.7755 201.654 65.097C202.145 65.4185 202.528 65.8743 202.803 66.4642C203.078 67.0542 203.215 67.7502 203.215 68.5523C203.215 69.361 203.078 70.062 202.803 70.6553C202.528 71.2452 202.146 71.7026 201.659 72.0274C201.172 72.3489 200.61 72.5097 199.974 72.5097C199.483 72.5097 199.091 72.4285 198.796 72.2661C198.501 72.1003 198.274 71.9131 198.114 71.7043C197.955 71.4922 197.833 71.3165 197.747 71.1773H197.607V72.3506H196.474ZM197.627 68.5324C197.627 69.1091 197.712 69.6179 197.881 70.0587C198.05 70.4962 198.297 70.8392 198.622 71.0878C198.946 71.3331 199.344 71.4557 199.815 71.4557C200.305 71.4557 200.715 71.3264 201.043 71.0679C201.374 70.8061 201.623 70.4548 201.788 70.0139C201.957 69.5698 202.042 69.076 202.042 68.5324C202.042 67.9955 201.959 67.5116 201.793 67.0807C201.631 66.6465 201.384 66.3035 201.053 66.0516C200.725 65.7964 200.312 65.6688 199.815 65.6688C199.337 65.6688 198.936 65.7897 198.612 66.0317C198.287 66.2703 198.042 66.6051 197.876 67.036C197.71 67.4635 197.627 67.9623 197.627 68.5324ZM205.492 75.2142C205.293 75.2142 205.116 75.1977 204.96 75.1645C204.805 75.1347 204.697 75.1048 204.637 75.075L204.935 74.0409C205.22 74.1138 205.472 74.1404 205.691 74.1205C205.91 74.1006 206.104 74.0028 206.273 73.8271C206.445 73.6548 206.603 73.3747 206.745 72.9869L206.964 72.3904L204.14 64.7142H205.413L207.521 70.7994H207.6L209.708 64.7142H210.981L207.739 73.4642C207.594 73.8586 207.413 74.1851 207.198 74.4436C206.982 74.7055 206.732 74.8994 206.447 75.0253C206.165 75.1512 205.847 75.2142 205.492 75.2142Z" fill="black"/>
<path d="M197.766 47H193.125V33.9091H197.804C199.121 33.9091 200.255 34.1712 201.205 34.6953C202.155 35.2152 202.886 35.9631 203.397 36.9389C203.913 37.9148 204.171 39.0824 204.171 40.4418C204.171 41.8054 203.913 42.9773 203.397 43.9574C202.886 44.9375 202.151 45.6896 201.192 46.2138C200.237 46.7379 199.095 47 197.766 47ZM195.893 44.6286H197.651C198.469 44.6286 199.157 44.4837 199.715 44.1939C200.278 43.8999 200.7 43.446 200.981 42.8324C201.267 42.2145 201.409 41.4176 201.409 40.4418C201.409 39.4744 201.267 38.6839 200.981 38.0703C200.7 37.4567 200.28 37.005 199.722 36.7152C199.164 36.4254 198.475 36.2805 197.657 36.2805H195.893V44.6286ZM208.97 47.1854C208.343 47.1854 207.785 47.0767 207.295 46.8594C206.805 46.6378 206.417 46.3118 206.131 45.8814C205.85 45.4467 205.71 44.9055 205.71 44.2578C205.71 43.7124 205.81 43.2543 206.01 42.8835C206.21 42.5128 206.483 42.2145 206.828 41.9886C207.173 41.7628 207.565 41.5923 208.004 41.4773C208.448 41.3622 208.912 41.2812 209.398 41.2344C209.969 41.1747 210.429 41.1193 210.779 41.0682C211.128 41.0128 211.381 40.9318 211.539 40.8253C211.697 40.7187 211.776 40.5611 211.776 40.3523V40.3139C211.776 39.9091 211.648 39.5959 211.392 39.3743C211.141 39.1527 210.783 39.0419 210.318 39.0419C209.828 39.0419 209.438 39.1506 209.149 39.3679C208.859 39.581 208.667 39.8494 208.573 40.1733L206.055 39.9688C206.183 39.3722 206.434 38.8565 206.809 38.4219C207.184 37.983 207.668 37.6463 208.26 37.4119C208.857 37.1733 209.547 37.054 210.331 37.054C210.877 37.054 211.399 37.1179 211.897 37.2457C212.4 37.3736 212.845 37.5717 213.233 37.8402C213.625 38.1087 213.934 38.4538 214.16 38.8757C214.386 39.2933 214.499 39.794 214.499 40.3778V47H211.916V45.6385H211.84C211.682 45.9453 211.471 46.2159 211.207 46.4503C210.943 46.6804 210.625 46.8615 210.254 46.9936C209.884 47.1214 209.455 47.1854 208.97 47.1854ZM209.749 45.3061C210.15 45.3061 210.504 45.2273 210.81 45.0696C211.117 44.9077 211.358 44.6903 211.533 44.4176C211.707 44.1449 211.795 43.8359 211.795 43.4908V42.4489C211.71 42.5043 211.592 42.5554 211.443 42.6023C211.298 42.6449 211.134 42.6854 210.951 42.7237C210.768 42.7578 210.585 42.7898 210.401 42.8196C210.218 42.8452 210.052 42.8686 209.903 42.8899C209.583 42.9368 209.304 43.0114 209.065 43.1136C208.827 43.2159 208.641 43.3544 208.509 43.5291C208.377 43.6996 208.311 43.9126 208.311 44.1683C208.311 44.5391 208.445 44.8224 208.714 45.0185C208.987 45.2102 209.332 45.3061 209.749 45.3061ZM221.834 37.1818V39.2273H215.921V37.1818H221.834ZM217.263 34.8295H219.986V43.983C219.986 44.2344 220.025 44.4304 220.101 44.571C220.178 44.7074 220.285 44.8033 220.421 44.8587C220.562 44.9141 220.723 44.9418 220.907 44.9418C221.035 44.9418 221.162 44.9311 221.29 44.9098C221.418 44.8842 221.516 44.8651 221.584 44.8523L222.013 46.8786C221.876 46.9212 221.684 46.9702 221.437 47.0256C221.19 47.0852 220.89 47.1214 220.536 47.1342C219.88 47.1598 219.304 47.0724 218.81 46.8722C218.32 46.6719 217.939 46.3608 217.666 45.9389C217.393 45.517 217.259 44.9844 217.263 44.3409V34.8295ZM226.407 47.1854C225.781 47.1854 225.222 47.0767 224.732 46.8594C224.242 46.6378 223.855 46.3118 223.569 45.8814C223.288 45.4467 223.147 44.9055 223.147 44.2578C223.147 43.7124 223.247 43.2543 223.448 42.8835C223.648 42.5128 223.921 42.2145 224.266 41.9886C224.611 41.7628 225.003 41.5923 225.442 41.4773C225.885 41.3622 226.35 41.2812 226.835 41.2344C227.406 41.1747 227.867 41.1193 228.216 41.0682C228.565 41.0128 228.819 40.9318 228.977 40.8253C229.134 40.7187 229.213 40.5611 229.213 40.3523V40.3139C229.213 39.9091 229.085 39.5959 228.83 39.3743C228.578 39.1527 228.22 39.0419 227.756 39.0419C227.266 39.0419 226.876 39.1506 226.586 39.3679C226.296 39.581 226.105 39.8494 226.011 40.1733L223.492 39.9688C223.62 39.3722 223.872 38.8565 224.247 38.4219C224.622 37.983 225.105 37.6463 225.698 37.4119C226.294 37.1733 226.984 37.054 227.769 37.054C228.314 37.054 228.836 37.1179 229.335 37.2457C229.837 37.3736 230.283 37.5717 230.671 37.8402C231.063 38.1087 231.372 38.4538 231.597 38.8757C231.823 39.2933 231.936 39.794 231.936 40.3778V47H229.354V45.6385H229.277C229.119 45.9453 228.908 46.2159 228.644 46.4503C228.38 46.6804 228.063 46.8615 227.692 46.9936C227.321 47.1214 226.893 47.1854 226.407 47.1854ZM227.187 45.3061C227.587 45.3061 227.941 45.2273 228.248 45.0696C228.555 44.9077 228.796 44.6903 228.97 44.4176C229.145 44.1449 229.232 43.8359 229.232 43.4908V42.4489C229.147 42.5043 229.03 42.5554 228.881 42.6023C228.736 42.6449 228.572 42.6854 228.389 42.7237C228.205 42.7578 228.022 42.7898 227.839 42.8196C227.656 42.8452 227.489 42.8686 227.34 42.8899C227.021 42.9368 226.742 43.0114 226.503 43.1136C226.264 43.2159 226.079 43.3544 225.947 43.5291C225.815 43.6996 225.749 43.9126 225.749 44.1683C225.749 44.5391 225.883 44.8224 226.151 45.0185C226.424 45.2102 226.769 45.3061 227.187 45.3061ZM241.201 37.674C241.15 37.1584 240.931 36.7578 240.543 36.4723C240.155 36.1868 239.629 36.044 238.964 36.044C238.513 36.044 238.131 36.108 237.82 36.2358C237.509 36.3594 237.27 36.532 237.104 36.7536C236.942 36.9751 236.861 37.2266 236.861 37.5078C236.853 37.7422 236.902 37.9467 237.008 38.1214C237.119 38.2962 237.27 38.4474 237.462 38.5753C237.654 38.6989 237.875 38.8075 238.127 38.9013C238.378 38.9908 238.647 39.0675 238.932 39.1314L240.108 39.4126C240.679 39.5405 241.204 39.7109 241.681 39.924C242.158 40.1371 242.571 40.3991 242.921 40.7102C243.27 41.0213 243.541 41.3878 243.733 41.8097C243.929 42.2315 244.029 42.7152 244.033 43.2607C244.029 44.0618 243.824 44.7564 243.419 45.3445C243.019 45.9283 242.439 46.3821 241.681 46.706C240.927 47.0256 240.017 47.1854 238.951 47.1854C237.895 47.1854 236.974 47.0234 236.19 46.6996C235.41 46.3757 234.801 45.8963 234.362 45.2614C233.927 44.6222 233.699 43.8317 233.678 42.8899H236.356C236.386 43.3288 236.512 43.6953 236.733 43.9893C236.959 44.2791 237.26 44.4986 237.635 44.6477C238.014 44.7926 238.442 44.8651 238.919 44.8651C239.388 44.8651 239.795 44.7969 240.14 44.6605C240.49 44.5241 240.76 44.3345 240.952 44.0916C241.144 43.8487 241.24 43.5696 241.24 43.2543C241.24 42.9602 241.152 42.7131 240.978 42.5128C240.807 42.3125 240.556 42.142 240.223 42.0014C239.895 41.8608 239.493 41.733 239.015 41.6179L237.59 41.2599C236.486 40.9915 235.615 40.5717 234.976 40.0007C234.336 39.4297 234.019 38.6605 234.023 37.6932C234.019 36.9006 234.23 36.2081 234.656 35.6158C235.086 35.0234 235.677 34.5611 236.427 34.2287C237.177 33.8963 238.029 33.7301 238.983 33.7301C239.955 33.7301 240.803 33.8963 241.527 34.2287C242.256 34.5611 242.823 35.0234 243.228 35.6158C243.633 36.2081 243.841 36.8942 243.854 37.674H241.201ZM247.525 50.6818C247.18 50.6818 246.856 50.6541 246.553 50.5987C246.255 50.5476 246.008 50.4815 245.812 50.4006L246.425 48.3679C246.745 48.4659 247.033 48.5192 247.288 48.5277C247.548 48.5362 247.772 48.4766 247.959 48.3487C248.151 48.2209 248.307 48.0036 248.426 47.6967L248.586 47.2812L245.064 37.1818H247.927L249.96 44.392H250.062L252.114 37.1818H254.997L251.181 48.0611C250.998 48.5895 250.749 49.0497 250.433 49.4418C250.122 49.8381 249.728 50.1428 249.251 50.3558C248.773 50.5732 248.198 50.6818 247.525 50.6818ZM259.114 41.3239V47H256.391V37.1818H258.986V38.9141H259.101C259.318 38.343 259.682 37.8913 260.194 37.5589C260.705 37.2223 261.325 37.054 262.054 37.054C262.736 37.054 263.33 37.2031 263.837 37.5014C264.344 37.7997 264.739 38.2259 265.02 38.7798C265.301 39.3295 265.442 39.9858 265.442 40.7486V47H262.719V41.2344C262.723 40.6335 262.57 40.1648 262.258 39.8281C261.947 39.4872 261.519 39.3168 260.974 39.3168C260.607 39.3168 260.283 39.3956 260.002 39.5533C259.725 39.7109 259.508 39.9411 259.35 40.2436C259.197 40.5419 259.118 40.902 259.114 41.3239ZM272.024 47.1918C271.018 47.1918 270.153 46.9787 269.429 46.5526C268.709 46.1222 268.155 45.5256 267.767 44.7628C267.383 44 267.192 43.1222 267.192 42.1293C267.192 41.1236 267.385 40.2415 267.773 39.483C268.165 38.7202 268.721 38.1257 269.442 37.6996C270.162 37.2692 271.018 37.054 272.011 37.054C272.868 37.054 273.618 37.2095 274.261 37.5206C274.905 37.8317 275.414 38.2685 275.789 38.831C276.164 39.3935 276.37 40.054 276.409 40.8125H273.839C273.767 40.3224 273.575 39.9283 273.264 39.63C272.957 39.3274 272.554 39.1761 272.056 39.1761C271.634 39.1761 271.265 39.2912 270.95 39.5213C270.639 39.7472 270.396 40.0774 270.221 40.5121C270.047 40.9467 269.959 41.473 269.959 42.0909C269.959 42.7173 270.044 43.25 270.215 43.6889C270.39 44.1278 270.635 44.4624 270.95 44.6925C271.265 44.9226 271.634 45.0376 272.056 45.0376C272.367 45.0376 272.646 44.9737 272.893 44.8459C273.145 44.718 273.351 44.5327 273.513 44.2898C273.679 44.0426 273.788 43.7464 273.839 43.4013H276.409C276.366 44.1513 276.162 44.8118 275.795 45.3828C275.433 45.9496 274.932 46.3928 274.293 46.7124C273.654 47.032 272.897 47.1918 272.024 47.1918Z" fill="black"/>
<line x1="176.557" y1="16" x2="176.557" y2="94.2474" stroke="black" stroke-opacity="0.2"/>
<path d="M87.9253 67.7675C87.3873 64.507 85.8285 61.8832 83.0822 60.2243C81.9862 59.5922 80.7795 59.1949 79.5333 59.0558C78.2872 58.9166 77.0269 59.0385 75.8267 59.4143C70.5569 60.9962 67.9601 66.6875 69.3877 71.8192C69.73 73.0767 70.3092 74.2508 71.0915 75.2738C71.8738 76.2966 72.8437 77.1478 73.9451 77.7777C75.0463 78.4077 76.257 78.8039 77.5068 78.9435C78.7565 79.0832 80.0206 78.9632 81.2254 78.5908C82.9916 78.0738 84.5646 77.0107 85.7361 75.5424C86.998 73.9387 87.7846 71.9883 88 69.9284L83.7136 71.221C83.3054 72.9195 82.229 74.3078 80.2064 74.9253C77.8312 75.6391 74.918 74.7901 73.9345 71.9544L87.9253 67.7675ZM73.0619 68.6356C72.7279 66.8415 73.7855 64.0247 76.8661 63.0985C79.8722 62.1531 82.303 64.0247 82.9154 65.6836L73.0619 68.6356Z" fill="black"/>
<path d="M120.902 67.7663C120.336 64.5063 118.697 61.8828 115.809 60.2241C114.656 59.5921 113.388 59.1949 112.077 59.0558C110.767 58.9166 109.441 59.0385 108.179 59.4142C102.637 60.9959 99.9065 66.6864 101.408 71.8174C101.769 73.0762 102.38 74.2513 103.204 75.2749C104.028 76.2984 105.05 77.1498 106.21 77.7798C107.371 78.4097 108.646 78.8056 109.962 78.9443C111.278 79.083 112.609 78.962 113.877 78.5881C115.734 78.071 117.388 77.0081 118.619 75.5405C119.946 73.9369 120.773 71.9868 121 69.9271L116.492 71.2196C116.063 72.9178 114.931 74.306 112.804 74.9234C110.306 75.6372 107.243 74.7882 106.208 71.9528L120.902 67.7663ZM105.272 68.6341C104.92 66.8403 106.032 64.0239 109.272 63.098C112.433 62.1527 114.989 64.0239 115.633 65.6827L105.272 68.6341Z" fill="black"/>
<path d="M120 78H125.601L129.99 71.8153L134.339 78H140L132.77 68.5107L139.265 60H133.763L129.99 65.5386L126.216 60H120.636L127.15 68.5109L120 78Z" fill="black"/>
<path d="M58 68.9392C58 73.7746 54.4976 78.8407 48.0096 78.8407C46.0716 78.8728 44.1653 78.3467 42.5167 77.3249V85H38.0384V69.7836C38.0191 69.4959 38 69.2079 38 68.9202V68.8818C38 64.0849 41.5024 59 47.9904 59C54.4969 59.0192 58 64.123 58 68.9392ZM53.5215 68.9008C53.5215 65.6002 51.0527 63.1635 47.9904 63.1635C45.0046 63.1635 42.5931 65.4854 42.4783 68.6512H42.4975V69.5915C42.6211 70.966 43.2533 72.2443 44.2699 73.1749C45.2866 74.1053 46.6138 74.6205 47.9904 74.6189C51.0527 74.6382 53.5215 72.2013 53.5215 68.9008Z" fill="black"/>
<path d="M64.6923 53H61V78H65V74.0456V53H64.6923Z" fill="black"/>
<path d="M29.3295 59.55H33.8443V78H29.3295V59.55ZM31.5 56.882C31.9945 56.882 32.4778 56.7388 32.8889 56.4706C33.3 56.2023 33.6205 55.8212 33.8096 55.3751C33.9989 54.9291 34.0484 54.4382 33.952 53.9647C33.8555 53.4912 33.6174 53.0563 33.2678 52.715C32.9181 52.3735 32.4727 52.1411 31.9877 52.0469C31.5028 51.9528 31.0002 52.001 30.5433 52.1858C30.0865 52.3706 29.6961 52.6834 29.4213 53.0848C29.1466 53.4862 29 53.9582 29 54.441C29.0017 55.0879 29.2656 55.7079 29.7341 56.1653C30.2026 56.6227 30.8374 56.8804 31.5 56.882Z" fill="black"/>
<path d="M18.4567 68.6133C18.5694 65.4413 20.976 63.1362 23.947 63.1362C24.3 63.1386 24.6521 63.1702 25 63.2305V59.0565C24.6503 59.0183 24.2988 58.9995 23.947 59C17.4785 59 14 64.0806 14 68.8399V68.8779C14 69.161 14.0188 69.4444 14.0377 69.7276V78H18.475L18.4567 68.6133Z" fill="black"/>
<path d="M13 58.7311H8.41403V53H4V78H8.41403V63.1866H13V58.7311Z" fill="black"/>
<path d="M100 58.7311H95.4141V53H91V78H95.4141V63.1866H100V58.7311Z" fill="black"/>
<path d="M160.798 46.9496V46.0673H166C165.893 44.769 165.333 43.5495 164.416 42.6224C163.531 41.7332 162.368 41.1727 161.12 41.0339C159.871 40.895 158.613 41.186 157.552 41.8588C156.494 42.5315 155.695 43.5455 155.291 44.7329C154.889 45.9202 154.903 47.2095 155.334 48.3872C155.766 49.5649 156.586 50.5602 157.662 51.2083C158.736 51.8564 160.001 52.1183 161.246 51.9506C162.49 51.7829 163.64 51.1957 164.505 50.2863C165.37 49.3768 165.897 48.1998 166 46.9502L160.798 46.9496Z" fill="#58B3CD"/>
<path d="M150.592 55.7988H151.393V61C152.574 60.8935 153.682 60.3329 154.525 59.4164C155.334 58.5309 155.843 57.3678 155.969 56.1195C156.095 54.8713 155.831 53.613 155.219 52.5532C154.608 51.4933 153.686 50.6956 152.607 50.2921C151.527 49.8886 150.355 49.9036 149.285 50.3344C148.214 50.7654 147.308 51.5865 146.72 52.6617C146.13 53.7368 145.892 55.0014 146.045 56.2462C146.198 57.4908 146.731 58.6406 147.558 59.5052C148.385 60.3698 149.455 60.8973 150.591 61L150.592 55.7988Z" fill="#1AB96D"/>
<path d="M151.022 36.5935L150.407 35.9775L154.068 32.3151C152.988 31.3931 151.592 30.9253 150.173 31.0097C148.754 31.0942 147.424 31.7243 146.461 32.7681C145.497 33.8119 144.974 35.1883 145.001 36.609C145.029 38.0297 145.606 39.3843 146.612 40.3891C147.616 41.3939 148.97 41.9708 150.391 41.9989C151.812 42.0271 153.188 41.5043 154.232 40.5402C155.275 39.576 155.905 38.2453 155.99 36.8268C156.074 35.4084 155.607 34.0123 154.684 32.9311L151.022 36.5935Z" fill="#010A59"/>
</svg>
