<svg width="275" height="79" viewBox="0 0 275 79" fill="none" xmlns="http://www.w3.org/2000/svg">
    <path d="M192.474 56.3506V46.1688H193.647V49.9273H193.747C193.833 49.7947 193.952 49.6257 194.104 49.4202C194.26 49.2114 194.482 49.0258 194.771 48.8634C195.062 48.6977 195.457 48.6148 195.954 48.6148C196.597 48.6148 197.164 48.7755 197.654 49.097C198.145 49.4185 198.528 49.8743 198.803 50.4642C199.078 51.0542 199.215 51.7502 199.215 52.5523C199.215 53.361 199.078 54.062 198.803 54.6553C198.528 55.2452 198.146 55.7026 197.659 56.0274C197.172 56.3489 196.61 56.5097 195.974 56.5097C195.483 56.5097 195.091 56.4285 194.796 56.2661C194.501 56.1003 194.274 55.9131 194.114 55.7043C193.955 55.4922 193.833 55.3165 193.747 55.1773H193.607V56.3506H192.474ZM193.627 52.5324C193.627 53.1091 193.712 53.6179 193.881 54.0587C194.05 54.4962 194.297 54.8392 194.622 55.0878C194.946 55.3331 195.344 55.4557 195.815 55.4557C196.305 55.4557 196.715 55.3264 197.043 55.0679C197.374 54.8061 197.623 54.4548 197.788 54.0139C197.957 53.5698 198.042 53.076 198.042 52.5324C198.042 51.9955 197.959 51.5116 197.793 51.0807C197.631 50.6465 197.384 50.3035 197.053 50.0516C196.725 49.7964 196.312 49.6688 195.815 49.6688C195.337 49.6688 194.936 49.7897 194.612 50.0317C194.287 50.2703 194.042 50.6051 193.876 51.036C193.71 51.4635 193.627 51.9623 193.627 52.5324ZM201.492 59.2142C201.293 59.2142 201.116 59.1977 200.96 59.1645C200.805 59.1347 200.697 59.1048 200.637 59.075L200.935 58.0409C201.22 58.1138 201.472 58.1404 201.691 58.1205C201.91 58.1006 202.104 58.0028 202.273 57.8271C202.445 57.6548 202.603 57.3747 202.745 56.9869L202.964 56.3904L200.14 48.7142H201.413L203.521 54.7994H203.6L205.708 48.7142H206.981L203.739 57.4642C203.594 57.8586 203.413 58.1851 203.198 58.4436C202.982 58.7055 202.732 58.8994 202.447 59.0253C202.165 59.1512 201.847 59.2142 201.492 59.2142Z" fill="black"/>
    <path d="M266.292 48.5533C265.661 47.6132 264.623 47.0934 262.597 47.0934C260.443 47.0934 259.355 47.711 258.756 48.8171C258.159 47.711 257.085 47.0934 254.899 47.0934C252.907 47.0934 251.849 47.6132 251.218 48.5533H254.051C254.334 48.5088 254.62 48.4834 254.907 48.4773C255.28 48.4858 255.652 48.5258 256.019 48.5969C257.128 48.8897 257.903 49.7113 257.993 50.9795V58.2381H259.513V51.0153C259.591 49.727 260.371 48.8914 261.49 48.5974C261.856 48.5264 262.229 48.4864 262.602 48.4778C262.889 48.4839 263.175 48.5093 263.458 48.5538L266.292 48.5533Z" fill="#009FDC"/>
    <path d="M250.598 50.2943C250.536 50.7254 250.507 51.1605 250.509 51.596V58.2381H251.869L251.981 56.9677C251.991 56.8833 252.027 55.6308 252.027 55.6308L252.032 51.0986C252.04 50.8275 252.077 50.5579 252.141 50.2943H250.598Z" fill="#009FDC"/>
    <path d="M265.371 50.2943C265.492 50.6257 265.483 51.2791 265.483 51.2841V55.6308C265.483 55.6308 265.518 56.8833 265.528 56.9677L265.64 58.2381H266.999V51.596C267.002 51.1605 266.972 50.7254 266.91 50.2943H265.371Z" fill="#009FDC"/>
    <path d="M233.07 48.5532C233.364 48.4342 233.679 48.3723 233.997 48.371C234.8 48.371 235.602 48.6835 236.204 49.1535L237.028 48.1285C236.182 47.4376 235.179 47.0811 234.042 47.0811C232.756 47.0811 231.608 47.5992 231.037 48.5555L233.07 48.5532Z" fill="#009FDC"/>
    <path d="M234.863 52.1611C233.646 51.6514 232.414 51.2612 232.136 50.2943H230.665C230.812 52.0471 232.263 52.6591 233.616 53.2085C234.841 53.6992 236.001 54.1447 236.001 55.3927C236.001 56.6408 234.775 57.1986 233.727 57.1986C232.702 57.1986 231.877 56.7514 231.23 56.0617L230.316 57.0203C230.745 57.4861 231.265 57.8576 231.845 58.1109C232.425 58.3642 233.051 58.4937 233.684 58.4913C235.512 58.4913 237.518 57.3321 237.518 55.4173C237.516 53.4762 236.199 52.7183 234.863 52.1611Z" fill="#009FDC"/>
    <path d="M213.575 48.5532C213.917 48.3811 214.295 48.2912 214.679 48.2905C215.481 48.2905 216.283 48.6024 216.885 49.073L217.71 48.0474C216.863 47.3566 215.86 47 214.723 47C213.403 47 212.227 47.5483 211.673 48.5555L213.575 48.5532Z" fill="#009FDC"/>
    <path d="M215.548 52.0806C214.367 51.5849 213.172 51.202 212.849 50.2921H211.356C211.539 51.9845 212.967 52.5837 214.3 53.1258C215.526 53.616 216.684 54.062 216.684 55.31C216.684 56.5581 215.458 57.1153 214.411 57.1153C213.385 57.1153 212.561 56.6682 211.914 55.9785L211 56.937C211.428 57.4028 211.948 57.7741 212.528 58.0274C213.108 58.2807 213.734 58.4104 214.366 58.4081C216.194 58.4081 218.2 57.2489 218.2 55.3341C218.2 53.3952 216.886 52.6373 215.548 52.0806Z" fill="#009FDC"/>
    <path d="M243.746 47.0352C241.73 47.0352 240.692 47.5605 240.064 48.5101H242.82C243.131 48.4568 243.446 48.4264 243.762 48.419C244.136 48.4279 244.508 48.4679 244.875 48.5386C245.997 48.7918 246.64 49.7397 246.64 51.2108L246.644 53.1838H240.881V51.2276C240.884 50.9003 240.917 50.574 240.98 50.2528H239.453C239.392 50.6786 239.363 51.1083 239.365 51.5383V58.1799H240.727L240.839 56.9089C240.849 56.8245 240.884 55.572 240.884 55.572V54.4726H246.646V55.572C246.646 55.572 246.681 56.8245 246.691 56.9089L246.803 58.1799H248.162V51.5378C248.162 48.7292 247.244 47.0352 243.746 47.0352Z" fill="#009FDC"/>
    <path d="M226.993 56.2283C226.09 57.4054 224.069 57.2098 224.069 57.2098C222.141 57.0047 221.449 55.7164 221.372 54.1799L221.368 53.1286H228.701V52.3109C228.701 49.8472 228.747 47.0225 224.236 47.0225C222.426 47.0225 221.29 47.44 220.588 48.4986H223.327C223.602 48.4434 223.881 48.4172 224.162 48.4203H224.437C227.232 48.4203 227.217 50.7046 227.217 51.0226C227.217 51.064 227.22 51.8414 227.22 51.8414H221.368L221.371 51.0243C221.372 50.7598 221.403 50.4962 221.462 50.2384H219.95C219.908 50.5537 219.894 51.1841 219.894 51.2188C219.894 51.3032 219.889 53.6707 219.889 53.6707C219.889 57.3596 221.8 58.4388 224.089 58.4388C224.207 58.4388 224.347 58.4332 224.444 58.4332C226.273 58.4332 228.082 57.829 228.563 56.2412L226.993 56.2283Z" fill="#009FDC"/>
    <path d="M194.239 31H189.599V17.9091H194.278C195.594 17.9091 196.728 18.1712 197.678 18.6953C198.629 19.2152 199.359 19.9631 199.871 20.9389C200.386 21.9148 200.644 23.0824 200.644 24.4418C200.644 25.8054 200.386 26.9773 199.871 27.9574C199.359 28.9375 198.624 29.6896 197.665 30.2138C196.711 30.7379 195.569 31 194.239 31ZM192.366 28.6286H194.124C194.942 28.6286 195.631 28.4837 196.189 28.1939C196.751 27.8999 197.173 27.446 197.455 26.8324C197.74 26.2145 197.883 25.4176 197.883 24.4418C197.883 23.4744 197.74 22.6839 197.455 22.0703C197.173 21.4567 196.754 21.005 196.195 20.7152C195.637 20.4254 194.949 20.2805 194.131 20.2805H192.366V28.6286ZM205.443 31.1854C204.817 31.1854 204.258 31.0767 203.768 30.8594C203.278 30.6378 202.89 30.3118 202.605 29.8814C202.324 29.4467 202.183 28.9055 202.183 28.2578C202.183 27.7124 202.283 27.2543 202.483 26.8835C202.684 26.5128 202.956 26.2145 203.302 25.9886C203.647 25.7628 204.039 25.5923 204.478 25.4773C204.921 25.3622 205.385 25.2812 205.871 25.2344C206.442 25.1747 206.903 25.1193 207.252 25.0682C207.601 25.0128 207.855 24.9318 208.013 24.8253C208.17 24.7187 208.249 24.5611 208.249 24.3523V24.3139C208.249 23.9091 208.121 23.5959 207.866 23.3743C207.614 23.1527 207.256 23.0419 206.792 23.0419C206.302 23.0419 205.912 23.1506 205.622 23.3679C205.332 23.581 205.14 23.8494 205.047 24.1733L202.528 23.9688C202.656 23.3722 202.907 22.8565 203.282 22.4219C203.657 21.983 204.141 21.6463 204.733 21.4119C205.33 21.1733 206.02 21.054 206.805 21.054C207.35 21.054 207.872 21.1179 208.371 21.2457C208.873 21.3736 209.319 21.5717 209.706 21.8402C210.099 22.1087 210.407 22.4538 210.633 22.8757C210.859 23.2933 210.972 23.794 210.972 24.3778V31H208.39V29.6385H208.313C208.155 29.9453 207.944 30.2159 207.68 30.4503C207.416 30.6804 207.099 30.8615 206.728 30.9936C206.357 31.1214 205.929 31.1854 205.443 31.1854ZM206.223 29.3061C206.623 29.3061 206.977 29.2273 207.284 29.0696C207.591 28.9077 207.831 28.6903 208.006 28.4176C208.181 28.1449 208.268 27.8359 208.268 27.4908V26.4489C208.183 26.5043 208.066 26.5554 207.917 26.6023C207.772 26.6449 207.608 26.6854 207.425 26.7237C207.241 26.7578 207.058 26.7898 206.875 26.8196C206.692 26.8452 206.525 26.8686 206.376 26.8899C206.057 26.9368 205.778 27.0114 205.539 27.1136C205.3 27.2159 205.115 27.3544 204.983 27.5291C204.851 27.6996 204.785 27.9126 204.785 28.1683C204.785 28.5391 204.919 28.8224 205.187 29.0185C205.46 29.2102 205.805 29.3061 206.223 29.3061ZM218.307 21.1818V23.2273H212.394V21.1818H218.307ZM213.737 18.8295H216.46V27.983C216.46 28.2344 216.498 28.4304 216.575 28.571C216.651 28.7074 216.758 28.8033 216.894 28.8587C217.035 28.9141 217.197 28.9418 217.38 28.9418C217.508 28.9418 217.636 28.9311 217.764 28.9098C217.892 28.8842 217.99 28.8651 218.058 28.8523L218.486 30.8786C218.35 30.9212 218.158 30.9702 217.911 31.0256C217.664 31.0852 217.363 31.1214 217.009 31.1342C216.353 31.1598 215.778 31.0724 215.284 30.8722C214.794 30.6719 214.412 30.3608 214.139 29.9389C213.867 29.517 213.732 28.9844 213.737 28.3409V18.8295ZM222.881 31.1854C222.254 31.1854 221.696 31.0767 221.206 30.8594C220.716 30.6378 220.328 30.3118 220.042 29.8814C219.761 29.4467 219.621 28.9055 219.621 28.2578C219.621 27.7124 219.721 27.2543 219.921 26.8835C220.121 26.5128 220.394 26.2145 220.739 25.9886C221.084 25.7628 221.476 25.5923 221.915 25.4773C222.358 25.3622 222.823 25.2812 223.309 25.2344C223.88 25.1747 224.34 25.1193 224.689 25.0682C225.039 25.0128 225.292 24.9318 225.45 24.8253C225.608 24.7187 225.687 24.5611 225.687 24.3523V24.3139C225.687 23.9091 225.559 23.5959 225.303 23.3743C225.052 23.1527 224.694 23.0419 224.229 23.0419C223.739 23.0419 223.349 23.1506 223.059 23.3679C222.77 23.581 222.578 23.8494 222.484 24.1733L219.966 23.9688C220.094 23.3722 220.345 22.8565 220.72 22.4219C221.095 21.983 221.579 21.6463 222.171 21.4119C222.768 21.1733 223.458 21.054 224.242 21.054C224.787 21.054 225.309 21.1179 225.808 21.2457C226.311 21.3736 226.756 21.5717 227.144 21.8402C227.536 22.1087 227.845 22.4538 228.071 22.8757C228.297 23.2933 228.41 23.794 228.41 24.3778V31H225.827V29.6385H225.751C225.593 29.9453 225.382 30.2159 225.118 30.4503C224.854 30.6804 224.536 30.8615 224.165 30.9936C223.795 31.1214 223.366 31.1854 222.881 31.1854ZM223.66 29.3061C224.061 29.3061 224.415 29.2273 224.721 29.0696C225.028 28.9077 225.269 28.6903 225.444 28.4176C225.618 28.1449 225.706 27.8359 225.706 27.4908V26.4489C225.621 26.5043 225.503 26.5554 225.354 26.6023C225.209 26.6449 225.045 26.6854 224.862 26.7237C224.679 26.7578 224.496 26.7898 224.312 26.8196C224.129 26.8452 223.963 26.8686 223.814 26.8899C223.494 26.9368 223.215 27.0114 222.976 27.1136C222.738 27.2159 222.552 27.3544 222.42 27.5291C222.288 27.6996 222.222 27.9126 222.222 28.1683C222.222 28.5391 222.356 28.8224 222.625 29.0185C222.898 29.2102 223.243 29.3061 223.66 29.3061ZM237.675 21.674C237.624 21.1584 237.404 20.7578 237.017 20.4723C236.629 20.1868 236.102 20.044 235.438 20.044C234.986 20.044 234.605 20.108 234.294 20.2358C233.982 20.3594 233.744 20.532 233.578 20.7536C233.416 20.9751 233.335 21.2266 233.335 21.5078C233.326 21.7422 233.375 21.9467 233.482 22.1214C233.593 22.2962 233.744 22.4474 233.936 22.5753C234.127 22.6989 234.349 22.8075 234.6 22.9013C234.852 22.9908 235.12 23.0675 235.406 23.1314L236.582 23.4126C237.153 23.5405 237.677 23.7109 238.154 23.924C238.632 24.1371 239.045 24.3991 239.394 24.7102C239.744 25.0213 240.014 25.3878 240.206 25.8097C240.402 26.2315 240.502 26.7152 240.507 27.2607C240.502 28.0618 240.298 28.7564 239.893 29.3445C239.492 29.9283 238.913 30.3821 238.154 30.706C237.4 31.0256 236.49 31.1854 235.425 31.1854C234.368 31.1854 233.448 31.0234 232.664 30.6996C231.884 30.3757 231.274 29.8963 230.835 29.2614C230.401 28.6222 230.173 27.8317 230.151 26.8899H232.83C232.86 27.3288 232.985 27.6953 233.207 27.9893C233.433 28.2791 233.733 28.4986 234.108 28.6477C234.487 28.7926 234.916 28.8651 235.393 28.8651C235.862 28.8651 236.269 28.7969 236.614 28.6605C236.963 28.5241 237.234 28.3345 237.426 28.0916C237.617 27.8487 237.713 27.5696 237.713 27.2543C237.713 26.9602 237.626 26.7131 237.451 26.5128C237.281 26.3125 237.029 26.142 236.697 26.0014C236.369 25.8608 235.966 25.733 235.489 25.6179L234.063 25.2599C232.96 24.9915 232.088 24.5717 231.449 24.0007C230.81 23.4297 230.492 22.6605 230.497 21.6932C230.492 20.9006 230.703 20.2081 231.129 19.6158C231.56 19.0234 232.15 18.5611 232.9 18.2287C233.65 17.8963 234.502 17.7301 235.457 17.7301C236.428 17.7301 237.276 17.8963 238.001 18.2287C238.73 18.5611 239.296 19.0234 239.701 19.6158C240.106 20.2081 240.315 20.8942 240.328 21.674H237.675ZM243.998 34.6818C243.653 34.6818 243.329 34.6541 243.027 34.5987C242.728 34.5476 242.481 34.4815 242.285 34.4006L242.899 32.3679C243.218 32.4659 243.506 32.5192 243.762 32.5277C244.022 32.5362 244.245 32.4766 244.433 32.3487C244.625 32.2209 244.78 32.0036 244.9 31.6967L245.059 31.2812L241.537 21.1818H244.401L246.434 28.392H246.536L248.588 21.1818H251.471L247.654 32.0611C247.471 32.5895 247.222 33.0497 246.907 33.4418C246.596 33.8381 246.201 34.1428 245.724 34.3558C245.247 34.5732 244.672 34.6818 243.998 34.6818ZM255.587 25.3239V31H252.864V21.1818H255.459V22.9141H255.574C255.792 22.343 256.156 21.8913 256.667 21.5589C257.179 21.2223 257.799 21.054 258.527 21.054C259.209 21.054 259.804 21.2031 260.311 21.5014C260.818 21.7997 261.212 22.2259 261.493 22.7798C261.775 23.3295 261.915 23.9858 261.915 24.7486V31H259.192V25.2344C259.196 24.6335 259.043 24.1648 258.732 23.8281C258.421 23.4872 257.993 23.3168 257.447 23.3168C257.081 23.3168 256.757 23.3956 256.475 23.5533C256.199 23.7109 255.981 23.9411 255.824 24.2436C255.67 24.5419 255.591 24.902 255.587 25.3239ZM268.497 31.1918C267.492 31.1918 266.627 30.9787 265.902 30.5526C265.182 30.1222 264.628 29.5256 264.24 28.7628C263.857 28 263.665 27.1222 263.665 26.1293C263.665 25.1236 263.859 24.2415 264.247 23.483C264.639 22.7202 265.195 22.1257 265.915 21.6996C266.635 21.2692 267.492 21.054 268.485 21.054C269.341 21.054 270.091 21.2095 270.735 21.5206C271.378 21.8317 271.887 22.2685 272.262 22.831C272.637 23.3935 272.844 24.054 272.882 24.8125H270.313C270.24 24.3224 270.048 23.9283 269.737 23.63C269.431 23.3274 269.028 23.1761 268.529 23.1761C268.107 23.1761 267.739 23.2912 267.423 23.5213C267.112 23.7472 266.869 24.0774 266.695 24.5121C266.52 24.9467 266.433 25.473 266.433 26.0909C266.433 26.7173 266.518 27.25 266.688 27.6889C266.863 28.1278 267.108 28.4624 267.423 28.6925C267.739 28.9226 268.107 29.0376 268.529 29.0376C268.84 29.0376 269.119 28.9737 269.367 28.8459C269.618 28.718 269.825 28.5327 269.987 28.2898C270.153 28.0426 270.262 27.7464 270.313 27.4013H272.882C272.84 28.1513 272.635 28.8118 272.269 29.3828C271.906 29.9496 271.406 30.3928 270.767 30.7124C270.127 31.032 269.371 31.1918 268.497 31.1918Z" fill="black"/>
    <line x1="172.557" y1="1.78753e-08" x2="172.557" y2="78.2474" stroke="black" stroke-opacity="0.2"/>
    <path d="M83.9253 51.7675C83.3873 48.507 81.8285 45.8832 79.0822 44.2243C77.9862 43.5922 76.7795 43.1949 75.5333 43.0558C74.2872 42.9166 73.0269 43.0385 71.8267 43.4143C66.5569 44.9962 63.9601 50.6875 65.3877 55.8192C65.73 57.0767 66.3092 58.2508 67.0915 59.2738C67.8738 60.2966 68.8437 61.1478 69.9451 61.7777C71.0463 62.4077 72.257 62.8039 73.5068 62.9435C74.7565 63.0832 76.0206 62.9632 77.2254 62.5908C78.9916 62.0738 80.5646 61.0107 81.7361 59.5424C82.998 57.9387 83.7846 55.9883 84 53.9284L79.7136 55.221C79.3054 56.9195 78.229 58.3078 76.2064 58.9253C73.8312 59.6391 70.918 58.7901 69.9345 55.9544L83.9253 51.7675ZM69.0619 52.6356C68.7279 50.8415 69.7855 48.0247 72.8661 47.0985C75.8722 46.1531 78.303 48.0247 78.9154 49.6836L69.0619 52.6356Z" fill="black"/>
    <path d="M116.902 51.7663C116.336 48.5063 114.697 45.8828 111.809 44.2241C110.656 43.5921 109.388 43.1949 108.077 43.0558C106.767 42.9166 105.441 43.0385 104.179 43.4142C98.6372 44.9959 95.9065 50.6864 97.4077 55.8174C97.7689 57.0762 98.3795 58.2513 99.204 59.2749C100.028 60.2984 101.05 61.1498 102.21 61.7798C103.371 62.4097 104.646 62.8056 105.962 62.9443C107.278 63.083 108.609 62.962 109.877 62.5881C111.734 62.071 113.388 61.0081 114.619 59.5405C115.946 57.9369 116.773 55.9868 117 53.9271L112.492 55.2196C112.063 56.9178 110.931 58.306 108.804 58.9234C106.306 59.6372 103.243 58.7882 102.208 55.9528L116.902 51.7663ZM101.272 52.6341C100.92 50.8403 102.032 48.0239 105.272 47.098C108.433 46.1527 110.989 48.0239 111.633 49.6827L101.272 52.6341Z" fill="black"/>
    <path d="M116 62H121.601L125.99 55.8153L130.339 62H136L128.77 52.5107L135.265 44H129.763L125.99 49.5386L122.216 44H116.636L123.15 52.5109L116 62Z" fill="black"/>
    <path d="M54 52.9392C54 57.7746 50.4976 62.8407 44.0096 62.8407C42.0716 62.8728 40.1653 62.3467 38.5167 61.3249V69H34.0384V53.7836C34.0191 53.4959 34 53.2079 34 52.9202V52.8818C34 48.0849 37.5024 43 43.9904 43C50.4969 43.0192 54 48.123 54 52.9392ZM49.5215 52.9008C49.5215 49.6002 47.0527 47.1635 43.9904 47.1635C41.0046 47.1635 38.5931 49.4854 38.4783 52.6512H38.4975V53.5915C38.6211 54.966 39.2533 56.2443 40.2699 57.1749C41.2866 58.1053 42.6138 58.6205 43.9904 58.6189C47.0527 58.6382 49.5215 56.2013 49.5215 52.9008Z" fill="black"/>
    <path d="M60.6923 37H57V62H61V58.0456V37H60.6923Z" fill="black"/>
    <path d="M25.3295 43.55H29.8443V62H25.3295V43.55ZM27.5 40.882C27.9945 40.882 28.4778 40.7388 28.8889 40.4706C29.3 40.2023 29.6205 39.8212 29.8096 39.3751C29.9989 38.9291 30.0484 38.4382 29.952 37.9647C29.8555 37.4912 29.6174 37.0563 29.2678 36.715C28.9181 36.3735 28.4727 36.1411 27.9877 36.0469C27.5028 35.9528 27.0002 36.001 26.5433 36.1858C26.0865 36.3706 25.6961 36.6834 25.4213 37.0848C25.1466 37.4862 25 37.9582 25 38.441C25.0017 39.0879 25.2656 39.7079 25.7341 40.1653C26.2026 40.6227 26.8374 40.8804 27.5 40.882Z" fill="black"/>
    <path d="M14.4567 52.6133C14.5694 49.4413 16.976 47.1362 19.947 47.1362C20.3 47.1386 20.6521 47.1702 21 47.2305V43.0565C20.6503 43.0183 20.2988 42.9995 19.947 43C13.4785 43 10 48.0806 10 52.8399V52.8779C10 53.161 10.0188 53.4444 10.0377 53.7276V62H14.475L14.4567 52.6133Z" fill="black"/>
    <path d="M9 42.7311H4.41403V37H0V62H4.41403V47.1866H9V42.7311Z" fill="black"/>
    <path d="M96 42.7311H91.4141V37H87V62H91.4141V47.1866H96V42.7311Z" fill="black"/>
    <path d="M156.798 30.9496V30.0673H162C161.893 28.769 161.333 27.5495 160.416 26.6224C159.531 25.7332 158.368 25.1727 157.12 25.0339C155.871 24.895 154.613 25.186 153.552 25.8588C152.494 26.5315 151.695 27.5455 151.291 28.7329C150.889 29.9202 150.903 31.2095 151.334 32.3872C151.766 33.5649 152.586 34.5602 153.662 35.2083C154.736 35.8564 156.001 36.1183 157.246 35.9506C158.49 35.7829 159.64 35.1957 160.505 34.2863C161.37 33.3768 161.897 32.1998 162 30.9502L156.798 30.9496Z" fill="#58B3CD"/>
    <path d="M146.592 39.7988H147.393V45C148.574 44.8935 149.682 44.3329 150.525 43.4164C151.334 42.5309 151.843 41.3678 151.969 40.1195C152.095 38.8713 151.831 37.613 151.219 36.5532C150.608 35.4933 149.686 34.6956 148.607 34.2921C147.527 33.8886 146.355 33.9036 145.285 34.3344C144.214 34.7654 143.308 35.5865 142.72 36.6617C142.13 37.7368 141.892 39.0014 142.045 40.2462C142.198 41.4908 142.731 42.6406 143.558 43.5052C144.385 44.3698 145.455 44.8973 146.591 45L146.592 39.7988Z" fill="#1AB96D"/>
    <path d="M147.022 20.5935L146.407 19.9775L150.068 16.3151C148.988 15.3931 147.592 14.9253 146.173 15.0097C144.754 15.0942 143.424 15.7243 142.461 16.7681C141.497 17.8119 140.974 19.1883 141.001 20.609C141.029 22.0297 141.606 23.3843 142.612 24.3891C143.616 25.3939 144.97 25.9708 146.391 25.9989C147.812 26.0271 149.188 25.5043 150.232 24.5402C151.275 23.576 151.905 22.2453 151.99 20.8268C152.074 19.4084 151.607 18.0123 150.684 16.9311L147.022 20.5935Z" fill="#010A59"/>
</svg>
